<mxfile host="app.diagrams.net" modified="2024-03-23T10:56:12.117Z" agent="Mozilla/5.0 (Windows NT 10.0; Win64; x64) AppleWebKit/537.36 (KHTML, like Gecko) Chrome/123.0.0.0 Safari/537.36" etag="cASXQyni4NciR4ocz7fd" version="24.0.8" type="device">
  <diagram name="Page-1" id="w4Oshtvv5kRhvPusGddu">
    <mxGraphModel dx="1167" dy="662" grid="1" gridSize="10" guides="1" tooltips="1" connect="1" arrows="1" fold="1" page="1" pageScale="1" pageWidth="850" pageHeight="1100" math="0" shadow="0">
      <root>
        <mxCell id="0" />
        <mxCell id="1" parent="0" />
        <mxCell id="1FUJOakguGxdzUvRwPak-11" style="edgeStyle=orthogonalEdgeStyle;rounded=0;orthogonalLoop=1;jettySize=auto;html=1;entryX=0.5;entryY=0;entryDx=0;entryDy=0;" edge="1" parent="1" source="1FUJOakguGxdzUvRwPak-1" target="1FUJOakguGxdzUvRwPak-3">
          <mxGeometry relative="1" as="geometry" />
        </mxCell>
        <mxCell id="1FUJOakguGxdzUvRwPak-12" style="edgeStyle=orthogonalEdgeStyle;rounded=0;orthogonalLoop=1;jettySize=auto;html=1;exitX=1;exitY=0.5;exitDx=0;exitDy=0;entryX=0.5;entryY=0;entryDx=0;entryDy=0;" edge="1" parent="1" source="1FUJOakguGxdzUvRwPak-1" target="1FUJOakguGxdzUvRwPak-2">
          <mxGeometry relative="1" as="geometry" />
        </mxCell>
        <mxCell id="1FUJOakguGxdzUvRwPak-1" value="Login/Register" style="rounded=0;whiteSpace=wrap;html=1;" vertex="1" parent="1">
          <mxGeometry x="360" y="50" width="120" height="60" as="geometry" />
        </mxCell>
        <mxCell id="1FUJOakguGxdzUvRwPak-17" style="edgeStyle=orthogonalEdgeStyle;rounded=0;orthogonalLoop=1;jettySize=auto;html=1;exitX=0;exitY=0.5;exitDx=0;exitDy=0;entryX=0.5;entryY=0;entryDx=0;entryDy=0;" edge="1" parent="1" source="1FUJOakguGxdzUvRwPak-2" target="1FUJOakguGxdzUvRwPak-7">
          <mxGeometry relative="1" as="geometry" />
        </mxCell>
        <mxCell id="1FUJOakguGxdzUvRwPak-18" style="edgeStyle=orthogonalEdgeStyle;rounded=0;orthogonalLoop=1;jettySize=auto;html=1;exitX=0.5;exitY=1;exitDx=0;exitDy=0;entryX=0.5;entryY=0;entryDx=0;entryDy=0;" edge="1" parent="1" source="1FUJOakguGxdzUvRwPak-2" target="1FUJOakguGxdzUvRwPak-8">
          <mxGeometry relative="1" as="geometry" />
        </mxCell>
        <mxCell id="1FUJOakguGxdzUvRwPak-19" style="edgeStyle=orthogonalEdgeStyle;rounded=0;orthogonalLoop=1;jettySize=auto;html=1;exitX=0.5;exitY=1;exitDx=0;exitDy=0;entryX=0.5;entryY=0;entryDx=0;entryDy=0;" edge="1" parent="1" source="1FUJOakguGxdzUvRwPak-2" target="1FUJOakguGxdzUvRwPak-9">
          <mxGeometry relative="1" as="geometry" />
        </mxCell>
        <mxCell id="1FUJOakguGxdzUvRwPak-20" style="edgeStyle=orthogonalEdgeStyle;rounded=0;orthogonalLoop=1;jettySize=auto;html=1;exitX=1;exitY=0.5;exitDx=0;exitDy=0;entryX=0.5;entryY=0;entryDx=0;entryDy=0;" edge="1" parent="1" source="1FUJOakguGxdzUvRwPak-2" target="1FUJOakguGxdzUvRwPak-10">
          <mxGeometry relative="1" as="geometry" />
        </mxCell>
        <mxCell id="1FUJOakguGxdzUvRwPak-2" value="NGO" style="rounded=0;whiteSpace=wrap;html=1;" vertex="1" parent="1">
          <mxGeometry x="620" y="160" width="120" height="60" as="geometry" />
        </mxCell>
        <mxCell id="1FUJOakguGxdzUvRwPak-15" style="edgeStyle=orthogonalEdgeStyle;rounded=0;orthogonalLoop=1;jettySize=auto;html=1;" edge="1" parent="1" source="1FUJOakguGxdzUvRwPak-3" target="1FUJOakguGxdzUvRwPak-4">
          <mxGeometry relative="1" as="geometry" />
        </mxCell>
        <mxCell id="1FUJOakguGxdzUvRwPak-16" style="edgeStyle=orthogonalEdgeStyle;rounded=0;orthogonalLoop=1;jettySize=auto;html=1;exitX=0.5;exitY=1;exitDx=0;exitDy=0;entryX=0.5;entryY=0;entryDx=0;entryDy=0;" edge="1" parent="1" source="1FUJOakguGxdzUvRwPak-3" target="1FUJOakguGxdzUvRwPak-5">
          <mxGeometry relative="1" as="geometry" />
        </mxCell>
        <mxCell id="1FUJOakguGxdzUvRwPak-3" value="Candidate" style="rounded=0;whiteSpace=wrap;html=1;" vertex="1" parent="1">
          <mxGeometry x="100" y="160" width="120" height="60" as="geometry" />
        </mxCell>
        <mxCell id="1FUJOakguGxdzUvRwPak-4" value="News Listing" style="rounded=0;whiteSpace=wrap;html=1;" vertex="1" parent="1">
          <mxGeometry x="10" y="280" width="120" height="60" as="geometry" />
        </mxCell>
        <mxCell id="1FUJOakguGxdzUvRwPak-5" value="Event Listing" style="rounded=0;whiteSpace=wrap;html=1;" vertex="1" parent="1">
          <mxGeometry x="190" y="280" width="120" height="60" as="geometry" />
        </mxCell>
        <mxCell id="1FUJOakguGxdzUvRwPak-7" value="NGO listing" style="rounded=0;whiteSpace=wrap;html=1;" vertex="1" parent="1">
          <mxGeometry x="380" y="280" width="120" height="60" as="geometry" />
        </mxCell>
        <mxCell id="1FUJOakguGxdzUvRwPak-8" value="Jobs listing" style="rounded=0;whiteSpace=wrap;html=1;" vertex="1" parent="1">
          <mxGeometry x="540" y="280" width="120" height="60" as="geometry" />
        </mxCell>
        <mxCell id="1FUJOakguGxdzUvRwPak-9" value="News listing" style="rounded=0;whiteSpace=wrap;html=1;" vertex="1" parent="1">
          <mxGeometry x="700" y="280" width="120" height="60" as="geometry" />
        </mxCell>
        <mxCell id="1FUJOakguGxdzUvRwPak-10" value="Event listing" style="rounded=0;whiteSpace=wrap;html=1;" vertex="1" parent="1">
          <mxGeometry x="860" y="280" width="120" height="60" as="geometry" />
        </mxCell>
        <mxCell id="1FUJOakguGxdzUvRwPak-37" value="" style="edgeStyle=orthogonalEdgeStyle;rounded=0;orthogonalLoop=1;jettySize=auto;html=1;" edge="1" parent="1" source="1FUJOakguGxdzUvRwPak-21" target="1FUJOakguGxdzUvRwPak-36">
          <mxGeometry relative="1" as="geometry" />
        </mxCell>
        <mxCell id="1FUJOakguGxdzUvRwPak-21" value="News" style="rounded=0;whiteSpace=wrap;html=1;" vertex="1" parent="1">
          <mxGeometry x="660" y="550" width="120" height="60" as="geometry" />
        </mxCell>
        <mxCell id="1FUJOakguGxdzUvRwPak-35" value="" style="edgeStyle=orthogonalEdgeStyle;rounded=0;orthogonalLoop=1;jettySize=auto;html=1;" edge="1" parent="1" source="1FUJOakguGxdzUvRwPak-22" target="1FUJOakguGxdzUvRwPak-34">
          <mxGeometry relative="1" as="geometry" />
        </mxCell>
        <mxCell id="1FUJOakguGxdzUvRwPak-22" value="Jobs" style="rounded=0;whiteSpace=wrap;html=1;" vertex="1" parent="1">
          <mxGeometry x="470" y="550" width="120" height="60" as="geometry" />
        </mxCell>
        <mxCell id="1FUJOakguGxdzUvRwPak-29" value="" style="edgeStyle=orthogonalEdgeStyle;rounded=0;orthogonalLoop=1;jettySize=auto;html=1;" edge="1" parent="1" source="1FUJOakguGxdzUvRwPak-23" target="1FUJOakguGxdzUvRwPak-28">
          <mxGeometry relative="1" as="geometry" />
        </mxCell>
        <mxCell id="1FUJOakguGxdzUvRwPak-23" value="NGOs" style="rounded=0;whiteSpace=wrap;html=1;" vertex="1" parent="1">
          <mxGeometry x="280" y="550" width="120" height="60" as="geometry" />
        </mxCell>
        <mxCell id="1FUJOakguGxdzUvRwPak-27" value="" style="edgeStyle=orthogonalEdgeStyle;rounded=0;orthogonalLoop=1;jettySize=auto;html=1;" edge="1" parent="1" source="1FUJOakguGxdzUvRwPak-24" target="1FUJOakguGxdzUvRwPak-26">
          <mxGeometry relative="1" as="geometry" />
        </mxCell>
        <mxCell id="1FUJOakguGxdzUvRwPak-24" value="Home" style="rounded=0;whiteSpace=wrap;html=1;" vertex="1" parent="1">
          <mxGeometry x="90" y="550" width="120" height="60" as="geometry" />
        </mxCell>
        <mxCell id="1FUJOakguGxdzUvRwPak-39" value="" style="edgeStyle=orthogonalEdgeStyle;rounded=0;orthogonalLoop=1;jettySize=auto;html=1;" edge="1" parent="1" source="1FUJOakguGxdzUvRwPak-25" target="1FUJOakguGxdzUvRwPak-38">
          <mxGeometry relative="1" as="geometry" />
        </mxCell>
        <mxCell id="1FUJOakguGxdzUvRwPak-25" value="Events" style="rounded=0;whiteSpace=wrap;html=1;" vertex="1" parent="1">
          <mxGeometry x="850" y="550" width="120" height="60" as="geometry" />
        </mxCell>
        <mxCell id="1FUJOakguGxdzUvRwPak-47" value="" style="edgeStyle=orthogonalEdgeStyle;rounded=0;orthogonalLoop=1;jettySize=auto;html=1;" edge="1" parent="1" source="1FUJOakguGxdzUvRwPak-26" target="1FUJOakguGxdzUvRwPak-46">
          <mxGeometry relative="1" as="geometry" />
        </mxCell>
        <mxCell id="1FUJOakguGxdzUvRwPak-26" value="Application info" style="rounded=0;whiteSpace=wrap;html=1;" vertex="1" parent="1">
          <mxGeometry x="90" y="690" width="120" height="60" as="geometry" />
        </mxCell>
        <mxCell id="1FUJOakguGxdzUvRwPak-31" value="" style="edgeStyle=orthogonalEdgeStyle;rounded=0;orthogonalLoop=1;jettySize=auto;html=1;" edge="1" parent="1" source="1FUJOakguGxdzUvRwPak-28" target="1FUJOakguGxdzUvRwPak-30">
          <mxGeometry relative="1" as="geometry" />
        </mxCell>
        <mxCell id="1FUJOakguGxdzUvRwPak-28" value="NGO list" style="rounded=0;whiteSpace=wrap;html=1;" vertex="1" parent="1">
          <mxGeometry x="280" y="690" width="120" height="60" as="geometry" />
        </mxCell>
        <mxCell id="1FUJOakguGxdzUvRwPak-56" value="" style="edgeStyle=orthogonalEdgeStyle;rounded=0;orthogonalLoop=1;jettySize=auto;html=1;" edge="1" parent="1" source="1FUJOakguGxdzUvRwPak-30" target="1FUJOakguGxdzUvRwPak-55">
          <mxGeometry relative="1" as="geometry" />
        </mxCell>
        <mxCell id="1FUJOakguGxdzUvRwPak-30" value="Searching and filtering" style="rounded=0;whiteSpace=wrap;html=1;" vertex="1" parent="1">
          <mxGeometry x="280" y="830" width="120" height="60" as="geometry" />
        </mxCell>
        <mxCell id="1FUJOakguGxdzUvRwPak-41" value="" style="edgeStyle=orthogonalEdgeStyle;rounded=0;orthogonalLoop=1;jettySize=auto;html=1;" edge="1" parent="1" source="1FUJOakguGxdzUvRwPak-34" target="1FUJOakguGxdzUvRwPak-40">
          <mxGeometry relative="1" as="geometry" />
        </mxCell>
        <mxCell id="1FUJOakguGxdzUvRwPak-34" value="Jobs list" style="rounded=0;whiteSpace=wrap;html=1;" vertex="1" parent="1">
          <mxGeometry x="470" y="690" width="120" height="60" as="geometry" />
        </mxCell>
        <mxCell id="1FUJOakguGxdzUvRwPak-43" value="" style="edgeStyle=orthogonalEdgeStyle;rounded=0;orthogonalLoop=1;jettySize=auto;html=1;" edge="1" parent="1" source="1FUJOakguGxdzUvRwPak-36" target="1FUJOakguGxdzUvRwPak-42">
          <mxGeometry relative="1" as="geometry" />
        </mxCell>
        <mxCell id="1FUJOakguGxdzUvRwPak-36" value="News list" style="rounded=0;whiteSpace=wrap;html=1;" vertex="1" parent="1">
          <mxGeometry x="660" y="690" width="120" height="60" as="geometry" />
        </mxCell>
        <mxCell id="1FUJOakguGxdzUvRwPak-45" value="" style="edgeStyle=orthogonalEdgeStyle;rounded=0;orthogonalLoop=1;jettySize=auto;html=1;" edge="1" parent="1" source="1FUJOakguGxdzUvRwPak-38" target="1FUJOakguGxdzUvRwPak-44">
          <mxGeometry relative="1" as="geometry" />
        </mxCell>
        <mxCell id="1FUJOakguGxdzUvRwPak-38" value="Events list" style="rounded=0;whiteSpace=wrap;html=1;" vertex="1" parent="1">
          <mxGeometry x="850" y="690" width="120" height="60" as="geometry" />
        </mxCell>
        <mxCell id="1FUJOakguGxdzUvRwPak-60" style="edgeStyle=orthogonalEdgeStyle;rounded=0;orthogonalLoop=1;jettySize=auto;html=1;exitX=0.5;exitY=1;exitDx=0;exitDy=0;entryX=0.5;entryY=0;entryDx=0;entryDy=0;" edge="1" parent="1" source="1FUJOakguGxdzUvRwPak-40" target="1FUJOakguGxdzUvRwPak-59">
          <mxGeometry relative="1" as="geometry" />
        </mxCell>
        <mxCell id="1FUJOakguGxdzUvRwPak-40" value="Searching and filtering" style="rounded=0;whiteSpace=wrap;html=1;" vertex="1" parent="1">
          <mxGeometry x="470" y="830" width="120" height="60" as="geometry" />
        </mxCell>
        <mxCell id="1FUJOakguGxdzUvRwPak-61" style="edgeStyle=orthogonalEdgeStyle;rounded=0;orthogonalLoop=1;jettySize=auto;html=1;exitX=0.5;exitY=1;exitDx=0;exitDy=0;entryX=0.5;entryY=0;entryDx=0;entryDy=0;" edge="1" parent="1" source="1FUJOakguGxdzUvRwPak-42" target="1FUJOakguGxdzUvRwPak-57">
          <mxGeometry relative="1" as="geometry" />
        </mxCell>
        <mxCell id="1FUJOakguGxdzUvRwPak-42" value="Searching and filtering" style="rounded=0;whiteSpace=wrap;html=1;" vertex="1" parent="1">
          <mxGeometry x="660" y="830" width="120" height="60" as="geometry" />
        </mxCell>
        <mxCell id="1FUJOakguGxdzUvRwPak-62" style="edgeStyle=orthogonalEdgeStyle;rounded=0;orthogonalLoop=1;jettySize=auto;html=1;exitX=0.5;exitY=1;exitDx=0;exitDy=0;entryX=0.5;entryY=0;entryDx=0;entryDy=0;" edge="1" parent="1" source="1FUJOakguGxdzUvRwPak-44" target="1FUJOakguGxdzUvRwPak-58">
          <mxGeometry relative="1" as="geometry" />
        </mxCell>
        <mxCell id="1FUJOakguGxdzUvRwPak-44" value="Searching and filtering" style="rounded=0;whiteSpace=wrap;html=1;" vertex="1" parent="1">
          <mxGeometry x="850" y="830" width="120" height="60" as="geometry" />
        </mxCell>
        <mxCell id="1FUJOakguGxdzUvRwPak-49" value="" style="edgeStyle=orthogonalEdgeStyle;rounded=0;orthogonalLoop=1;jettySize=auto;html=1;" edge="1" parent="1" source="1FUJOakguGxdzUvRwPak-46" target="1FUJOakguGxdzUvRwPak-48">
          <mxGeometry relative="1" as="geometry" />
        </mxCell>
        <mxCell id="1FUJOakguGxdzUvRwPak-46" value="Overview of each and every category" style="rounded=0;whiteSpace=wrap;html=1;" vertex="1" parent="1">
          <mxGeometry x="90" y="830" width="120" height="60" as="geometry" />
        </mxCell>
        <mxCell id="1FUJOakguGxdzUvRwPak-48" value="Contact us" style="rounded=0;whiteSpace=wrap;html=1;" vertex="1" parent="1">
          <mxGeometry x="90" y="970" width="120" height="60" as="geometry" />
        </mxCell>
        <mxCell id="1FUJOakguGxdzUvRwPak-50" value="" style="endArrow=none;html=1;rounded=0;exitX=1;exitY=0.5;exitDx=0;exitDy=0;entryX=0;entryY=0.5;entryDx=0;entryDy=0;" edge="1" parent="1" source="1FUJOakguGxdzUvRwPak-24" target="1FUJOakguGxdzUvRwPak-23">
          <mxGeometry width="50" height="50" relative="1" as="geometry">
            <mxPoint x="400" y="800" as="sourcePoint" />
            <mxPoint x="450" y="750" as="targetPoint" />
          </mxGeometry>
        </mxCell>
        <mxCell id="1FUJOakguGxdzUvRwPak-51" value="" style="endArrow=none;html=1;rounded=0;exitX=1;exitY=0.5;exitDx=0;exitDy=0;entryX=0;entryY=0.5;entryDx=0;entryDy=0;" edge="1" parent="1">
          <mxGeometry width="50" height="50" relative="1" as="geometry">
            <mxPoint x="400" y="579.44" as="sourcePoint" />
            <mxPoint x="470" y="579.44" as="targetPoint" />
            <Array as="points">
              <mxPoint x="430" y="579.44" />
            </Array>
          </mxGeometry>
        </mxCell>
        <mxCell id="1FUJOakguGxdzUvRwPak-52" value="" style="endArrow=none;html=1;rounded=0;exitX=1;exitY=0.5;exitDx=0;exitDy=0;entryX=0;entryY=0.5;entryDx=0;entryDy=0;" edge="1" parent="1">
          <mxGeometry width="50" height="50" relative="1" as="geometry">
            <mxPoint x="590" y="579.44" as="sourcePoint" />
            <mxPoint x="660" y="579.44" as="targetPoint" />
          </mxGeometry>
        </mxCell>
        <mxCell id="1FUJOakguGxdzUvRwPak-53" value="" style="endArrow=none;html=1;rounded=0;exitX=1;exitY=0.5;exitDx=0;exitDy=0;entryX=0;entryY=0.5;entryDx=0;entryDy=0;" edge="1" parent="1">
          <mxGeometry width="50" height="50" relative="1" as="geometry">
            <mxPoint x="780" y="579.44" as="sourcePoint" />
            <mxPoint x="850" y="579.44" as="targetPoint" />
          </mxGeometry>
        </mxCell>
        <mxCell id="1FUJOakguGxdzUvRwPak-55" value="Adding as per the authority" style="rounded=0;whiteSpace=wrap;html=1;" vertex="1" parent="1">
          <mxGeometry x="280" y="970" width="120" height="60" as="geometry" />
        </mxCell>
        <mxCell id="1FUJOakguGxdzUvRwPak-57" value="Adding as per the authority" style="rounded=0;whiteSpace=wrap;html=1;" vertex="1" parent="1">
          <mxGeometry x="660" y="970" width="120" height="60" as="geometry" />
        </mxCell>
        <mxCell id="1FUJOakguGxdzUvRwPak-58" value="Adding as per the authority" style="rounded=0;whiteSpace=wrap;html=1;" vertex="1" parent="1">
          <mxGeometry x="850" y="970" width="120" height="60" as="geometry" />
        </mxCell>
        <mxCell id="1FUJOakguGxdzUvRwPak-59" value="Adding as per the authority" style="rounded=0;whiteSpace=wrap;html=1;" vertex="1" parent="1">
          <mxGeometry x="470" y="970" width="120" height="60" as="geometry" />
        </mxCell>
      </root>
    </mxGraphModel>
  </diagram>
</mxfile>
